<svg xmlns="http://www.w3.org/2000/svg" viewBox="0 0 104.67 24"><defs><style>.a{fill:#ff6200;}.b{fill:#233241;}</style></defs><title>アートボード 6</title><path class="a" d="M20.79,12.41A48.57,48.57,0,0,1,9.15,23.79c-.9.61-1.42-.23-.88-.91A66.69,66.69,0,0,1,19.91,11.5C20.66,11,21.26,11.74,20.79,12.41Zm-4.2-4.35c.56-.78.05-1.57-.88-.91-.56.39-9.36,8.22-11,9.92-1.6-1.38-3.29-2.82-3.69-3.14a.64.64,0,0,0-.9.07.65.65,0,0,0,0,.82A44.41,44.41,0,0,0,4,19.54a1.07,1.07,0,0,0,1.48.23l.14-.12A67.21,67.21,0,0,0,16.59,8.06Zm-11.74,3a62,62,0,0,0,7.57-6.63,1.09,1.09,0,0,0,0-1.54l-.06-.05C12.09,2.65,9.47.35,9.18.14c-.6-.42-1.31.17-.91.89S9.39,2.89,9.83,3.58C9.46,3.91,4.52,9.5,4,10.19s0,1.52.88.91Z"/><path class="b" d="M27.28,5.55h2.87v5.76l5.27-5.76h3.46l-5.3,5.59,5.54,7.58H35.68l-4-5.6L30.14,14.7v4H27.28Zm18.59-.09h2.64l5.57,13.26h-3L49.9,15.77H44.4l-1.19,2.95H40.29Zm3,7.75L47.15,8.94l-1.73,4.27Zm6.73-1v0a6.72,6.72,0,0,1,6.63-6.81h.19a7.09,7.09,0,0,1,5.12,1.81l-1.8,2.2A4.81,4.81,0,0,0,62.35,8a3.94,3.94,0,0,0-3.74,4.1v0a3.93,3.93,0,0,0,3.66,4.17h.28a4.55,4.55,0,0,0,2.7-.79V13.63H62.37v-2.5H68v5.72a8.32,8.32,0,0,1-5.56,2.09,6.55,6.55,0,0,1-6.85-6.24,4.68,4.68,0,0,1,0-.53ZM76.15,5.46h2.64l5.58,13.26h-3l-1.19-2.95h-5.5L73.5,18.72H70.58Zm3,7.75L77.43,8.94l-1.72,4.27Zm8.15-7.66h5.94a5.15,5.15,0,0,1,3.8,1.34,4.12,4.12,0,0,1,1.11,3v0A4.09,4.09,0,0,1,95.37,14l3.18,4.7H95.21L92.42,14.5H90.17v4.22H87.31ZM93.07,12c1.39,0,2.19-.75,2.19-1.86v0c0-1.24-.85-1.88-2.25-1.88H90.17V12Zm8.74-6.4h2.86V18.72h-2.86Z"/></svg>