<svg xmlns="http://www.w3.org/2000/svg" viewBox="0 0 161.7 24"><defs><style>.a{fill:#ff6200;}.b{fill:#233241;}</style></defs><title>アートボード 6 のコピー</title><path class="a" d="M20.79,12.41A48.57,48.57,0,0,1,9.15,23.79c-.9.61-1.42-.23-.88-.91A66.69,66.69,0,0,1,19.91,11.5C20.66,11,21.26,11.74,20.79,12.41Zm-4.2-4.35c.56-.78.05-1.57-.88-.91-.56.39-9.36,8.22-11,9.92-1.6-1.38-3.29-2.82-3.69-3.14a.64.64,0,0,0-.9.07.65.65,0,0,0,0,.82A44.41,44.41,0,0,0,4,19.54a1.07,1.07,0,0,0,1.48.23l.14-.12A67.21,67.21,0,0,0,16.59,8.06Zm-11.74,3a62,62,0,0,0,7.57-6.63,1.09,1.09,0,0,0,0-1.54l-.06-.05C12.09,2.65,9.47.35,9.18.14c-.6-.42-1.31.17-.91.89S9.39,2.89,9.83,3.58C9.46,3.91,4.52,9.5,4,10.19s0,1.52.88.91Z"/><path class="b" d="M27.28,5.55h2.87v5.76l5.27-5.76h3.46l-5.3,5.59,5.54,7.58H35.68l-4-5.6L30.14,14.7v4H27.28Zm18.59-.09h2.64l5.57,13.26h-3L49.9,15.77H44.4l-1.19,2.95H40.29Zm3,7.75L47.15,8.94l-1.73,4.27Zm6.73-1v0a6.72,6.72,0,0,1,6.63-6.81h.19a7.09,7.09,0,0,1,5.12,1.81l-1.8,2.2A4.81,4.81,0,0,0,62.35,8a3.94,3.94,0,0,0-3.74,4.1v0a3.93,3.93,0,0,0,3.66,4.17h.28a4.55,4.55,0,0,0,2.7-.79V13.63H62.37v-2.5H68v5.72a8.32,8.32,0,0,1-5.56,2.09,6.55,6.55,0,0,1-6.85-6.24,4.68,4.68,0,0,1,0-.53ZM76.15,5.46h2.64l5.58,13.26h-3l-1.19-2.95h-5.5L73.5,18.72H70.58Zm3,7.75L77.43,8.94l-1.72,4.27Zm8.15-7.66h5.94a5.15,5.15,0,0,1,3.8,1.34,4.12,4.12,0,0,1,1.11,3v0A4.09,4.09,0,0,1,95.37,14l3.18,4.7H95.21L92.42,14.5H90.17v4.22H87.31ZM93.07,12c1.39,0,2.19-.75,2.19-1.86v0c0-1.24-.85-1.88-2.25-1.88H90.17V12Zm8.74-6.4h2.86V18.72h-2.86Z"/><path class="b" d="M111,6.11a16.56,16.56,0,0,1,3.1-.27,5.11,5.11,0,0,1,3.6,1,3.12,3.12,0,0,1,1,2.37,3.27,3.27,0,0,1-2.35,3.17v0A3.15,3.15,0,0,1,118.18,15a20.29,20.29,0,0,0,1,3.42h-1.67a16,16,0,0,1-.82-3c-.37-1.71-1-2.37-2.5-2.42h-1.52v5.4H111Zm1.61,5.67h1.64c1.72,0,2.82-.94,2.82-2.37,0-1.62-1.17-2.32-2.87-2.32a7,7,0,0,0-1.59.14Zm9.27,2.43A2.86,2.86,0,0,0,125,17.32a6,6,0,0,0,2.47-.46l.29,1.15a7.2,7.2,0,0,1-3,.57,4.17,4.17,0,0,1-4.4-4.51c0-2.7,1.59-4.82,4.2-4.82,2.92,0,3.68,2.56,3.68,4.2a4.59,4.59,0,0,1-.05.76Zm4.76-1.16c0-1-.42-2.63-2.24-2.63a2.68,2.68,0,0,0-2.5,2.63Zm3.59-.69c0-1.14,0-2.06-.08-2.91h1.45l.09,1.53h0a3.49,3.49,0,0,1,3.17-1.73c2.17,0,3.8,1.82,3.8,4.54,0,3.22-2,4.8-4.07,4.8a3.11,3.11,0,0,1-2.75-1.41h0v4.87h-1.61Zm1.61,2.39a2.78,2.78,0,0,0,.07.66,2.5,2.5,0,0,0,2.43,1.91c1.72,0,2.72-1.41,2.72-3.46,0-1.78-.94-3.32-2.66-3.32a2.6,2.6,0,0,0-2.46,2,2.93,2.93,0,0,0-.1.66Zm17-.91a4.37,4.37,0,0,1-4.45,4.75,4.25,4.25,0,0,1-4.29-4.6,4.37,4.37,0,0,1,4.44-4.74C147.14,9.25,148.87,11.11,148.87,13.84Zm-7.09.1c0,2,1.13,3.44,2.71,3.44s2.73-1.46,2.73-3.49c0-1.51-.77-3.42-2.7-3.42S141.78,12.25,141.78,13.94Zm9.14-1.7c0-1.06,0-2-.07-2.79h1.42l.06,1.76h.06a2.73,2.73,0,0,1,2.49-2,1.59,1.59,0,0,1,.45.05v1.52a3,3,0,0,0-.55,0,2.28,2.28,0,0,0-2.18,2.08,4.42,4.42,0,0,0-.06.76v4.77h-1.62Zm8.44-5.36V9.45h2.34v1.23h-2.34V15.5c0,1.11.32,1.74,1.23,1.74a3.48,3.48,0,0,0,.94-.11l.08,1.23a4.28,4.28,0,0,1-1.45.22,2.29,2.29,0,0,1-1.76-.68,3.45,3.45,0,0,1-.63-2.34V10.68h-1.38V9.45h1.38V7.3Z"/></svg>